 <svg
    width="34"
    height="34"
    viewBox="0 0 34 34"
    fill="none"
    xmlns="http://www.w3.org/2000/svg"
  >
    <path
      d="M34 17C34 19.2325 33.5603 21.4431 32.706 23.5056C31.8516 25.5682 30.5994 27.4422 29.0208 29.0208C27.4422 30.5994 25.5682 31.8516 23.5056 32.706C21.4431 33.5603 19.2325 34 17 34L17 17H34Z"
      fill="#E88E27"
    />
    <path
      d="M17 -1.90735e-06C19.2325 -1.90735e-06 21.4431 0.439716 23.5056 1.29405C25.5682 2.14838 27.4422 3.40059 29.0208 4.97918C30.5994 6.55778 31.8516 8.43185 32.706 10.4944C33.5603 12.5569 34 14.7675 34 17L17 17V-1.90735e-06Z"
      fill="white"
    />
    <path
      d="M-1.90735e-06 17C-1.90735e-06 19.2325 0.439716 21.4431 1.29405 23.5056C2.14838 25.5682 3.40059 27.4422 4.97918 29.0208C6.55778 30.5994 8.43185 31.8516 10.4944 32.706C12.5569 33.5603 14.7675 34 17 34L17 17H-1.90735e-06Z"
      fill="white"
    />
    <path
      d="M17 -1.90735e-06C14.7675 -1.90735e-06 12.5569 0.439716 10.4944 1.29405C8.43185 2.14838 6.55778 3.40059 4.97918 4.97918C3.40059 6.55778 2.14838 8.43185 1.29405 10.4944C0.439718 12.5569 0 14.7675 0 17L17 17V-1.90735e-06Z"
      fill="#E88E27"
    />
  </svg>